<?xml version="1.0" encoding="UTF-8" standalone="no"?>
<svg
   xmlns:dc="http://purl.org/dc/elements/1.1/"
   xmlns:cc="http://creativecommons.org/ns#"
   xmlns:rdf="http://www.w3.org/1999/02/22-rdf-syntax-ns#"
   xmlns:svg="http://www.w3.org/2000/svg"
   xmlns="http://www.w3.org/2000/svg"
   id="svg3035"
   viewBox="0 0 630 630"
   height="100%"
   width="100%"
   version="1.1">
  <metadata
     id="metadata3045">
    <rdf:RDF>
      <cc:Work
         rdf:about="">
        <dc:format>image/svg+xml</dc:format>
        <dc:type
           rdf:resource="http://purl.org/dc/dcmitype/StillImage" />
        <dc:title></dc:title>
      </cc:Work>
    </rdf:RDF>
  </metadata>
  <defs
     id="defs3043" />
  <g
     id="logo">
    <rect
       style="fill:#f7df1e"
       id="background"
       y="0"
       x="0"
       height="630"
       width="630" />
    <flowRoot
       style="fill:#f70000;stroke:none;stroke-opacity:1;stroke-width:1px;stroke-linejoin:miter;stroke-linecap:butt;fill-opacity:1;font-family:Sans;font-style:normal;font-weight:normal;font-size:40px;line-height:125%;letter-spacing:0px;word-spacing:0px;"
       id="flowRoot5304"
       xml:space="preserve"><flowRegion
         id="flowRegion5306"><rect
           style="fill:#f70000;fill-opacity:1;"
           y="467.16101"
           x="343.69702"
           height="53.389832"
           width="213.55933"
           id="rect5308" /></flowRegion><flowPara
         id="flowPara5310"></flowPara></flowRoot>  </g>
  <g
     id="layer2" />
  <g
     style="fill:#2e2e2c;fill-opacity:1"
     id="Your_Icon"
     transform="matrix(3.0059144,0,0,3.0059144,289.99347,276.23702)">
    <g
       transform="translate(2.3548769,13.030319)"
       style="fill:#2e2e2c;fill-opacity:1"
       id="g3453">
      <g
         transform="matrix(1,0,0,-1,-17.095534,6.4286161)"
         style="fill:#2e2e2c;fill-opacity:1"
         id="g3347" />
      <g
         style="fill:#2e2e2c;fill-opacity:1"
         id="g3355">
        <g
           style="fill:#2e2e2c;fill-opacity:1"
           id="g3357">
          <g
             style="fill:#2e2e2c;fill-opacity:1"
             id="g3359">
            <path
               style="fill:#2e2e2c;fill-opacity:1;fill-rule:evenodd"
               id="path3361"
               d="m 20.169,84.443 59.396,0 c 1.704,0 3.083,1.409 3.083,3.147 0,1.739 -1.379,3.148 -3.083,3.148 l -59.396,0 c -1.703,0 -3.084,-1.409 -3.084,-3.148 0,-1.737 1.381,-3.147 3.084,-3.147 z" />
          </g>
        </g>
      </g>
      <g
         style="fill:#2e2e2c;fill-opacity:1"
         id="g3363">
        <g
           style="fill:#2e2e2c;fill-opacity:1"
           id="g3365">
          <g
             style="fill:#2e2e2c;fill-opacity:1"
             id="g3367">
            <path
               style="fill:#2e2e2c;fill-opacity:1;fill-rule:evenodd"
               id="path3369"
               d="m 30.213,93.649 39.84,0 c 1.704,0 3.084,1.41 3.084,3.149 0,1.739 -1.38,3.147 -3.084,3.147 l -39.84,0 c -1.703,0 -3.084,-1.408 -3.084,-3.147 0,-1.739 1.381,-3.149 3.084,-3.149 z" />
          </g>
        </g>
      </g>
      <g
         style="fill:#2e2e2c;fill-opacity:1"
         id="g3371">
        <g
           style="fill:#2e2e2c;fill-opacity:1"
           id="g3373">
          <g
             style="fill:#2e2e2c;fill-opacity:1"
             id="g3375">
            <path
               style="fill:#2e2e2c;fill-opacity:1;fill-rule:evenodd"
               id="path3377"
               d="M 57.212,6.41 C 57.212,2.87 54.491,0 51.022,0 47.556,0 45.001,2.87 45.001,6.41 45.001,8.611 46,10.552 48,11.706 l 0,10.907 c 0,1.869 1.171,3.383 3,3.383 1.831,0 3,-1.514 3,-3.383 l 0,-10.725 c 2,-1.124 3.212,-3.153 3.212,-5.478 z" />
          </g>
        </g>
      </g>
      <path
         id="path5302"
         d="m 14.729982,80.406869 c -4.03687,-1.556453 -8.6847805,-5.778182 -10.4758905,-9.515326 -1.40205,-2.92537 -5.63581,-24.133804 -5.63581,-28.231816 0,-4.56958 2.96482,-9.328701 7.2337,-11.611497 l 3.4324097,-1.190216 41.1842708,-0.11101 41.40629,0 3.21039,1.301226 c 4.486407,1.818418 7.233698,7.041917 7.233698,11.611497 0,3.19821 -4.214548,25.204876 -5.303388,27.692181 -1.61381,3.686492 -6.84732,8.541398 -10.80286,10.021357 -3.17854,1.189243 -4.20165,1.223248 -35.91258,1.193589 -30.78825,-0.02879 -32.80709,-0.09463 -35.57023,-1.159985 z"
         style="fill:#2e2e2c;fill-opacity:1" />
    </g>
  </g>
  <g
     id="layer3">
    <text
       id="text5316"
       y="503.5329"
       x="363.71826"
       style="font-style:normal;font-weight:normal;font-size:40px;line-height:125%;font-family:Sans;letter-spacing:0px;word-spacing:0px;fill:#000000;fill-opacity:1;stroke:none;stroke-width:1px;stroke-linecap:butt;stroke-linejoin:miter;stroke-opacity:1"
       xml:space="preserve"><tspan
         style="font-style:normal;font-variant:normal;font-weight:bold;font-stretch:normal;font-size:80px;line-height:125%;font-family:'PT Sans';-inkscape-font-specification:'PT Sans, Bold';text-align:start;writing-mode:lr-tb;text-anchor:start;fill:#f7df1e;fill-opacity:1"
         y="503.5329"
         x="363.71826"
         id="tspan5318">IOIOI</tspan></text>
  </g>
</svg>
