<?xml version="1.0" encoding="UTF-8"?>
<svg width="630px" height="630px" viewBox="0 0 630 630" version="1.1" xmlns="http://www.w3.org/2000/svg" xmlns:xlink="http://www.w3.org/1999/xlink">
    <!-- Generator: Sketch 51.2 (57519) - http://www.bohemiancoding.com/sketch -->
    <title>node-serialport-logo-small</title>
    <desc>Created with Sketch.</desc>
    <defs></defs>
    <g id="Page-1" stroke="none" stroke-width="1" fill="none" fill-rule="evenodd">
        <g id="node-serialport-logo-small">
            <g id="logo" fill="#F7DF1E" fill-rule="nonzero">
                <rect id="background" x="0" y="0" width="630" height="630"></rect>
            </g>
            <g id="Your_Icon" transform="translate(293.000000, 315.000000)" fill="#2E2E2C">
                <g id="g3453">
                    <g id="g3355" transform="translate(56.000000, 254.000000)">
                        <g id="g3357">
                            <g id="g3359">
                                <path d="M9.27024001,0 L187.809532,0 C192.93161,0 197.076766,4.23533339 197.076766,9.45961262 C197.076766,14.6868978 192.93161,18.9222311 187.809532,18.9222311 L9.27024001,18.9222311 C4.15116779,18.9222311 0,14.6868978 0,9.45961262 C0,4.2383393 4.15116779,0 9.27024001,0 Z" id="path3361"></path>
                            </g>
                        </g>
                    </g>
                    <g id="g3363" transform="translate(86.000000, 281.000000)">
                        <g id="g3365">
                            <g id="g3367">
                                <path d="M9.27024001,0 L129.02587,0 C134.147948,0 138.29611,4.2383393 138.29611,9.46562445 C138.29611,14.6929096 134.147948,18.9252371 129.02587,18.9252371 L9.27024001,18.9252371 C4.15116779,18.9252371 0,14.6929096 0,9.46562445 C0,4.2383393 4.15116779,0 9.27024001,0 Z" id="path3369"></path>
                            </g>
                        </g>
                    </g>
                    <g id="g3371" transform="translate(139.000000, 0.000000)">
                        <g id="g3373">
                            <g id="g3375">
                                <path d="M36.7052207,19.2679113 C36.7052207,8.62697433 28.5261277,0 18.0986106,0 C7.68011129,0 0,8.62697433 0,19.2679113 C0,25.8839289 3.00290849,31.7184087 9.01473729,35.187234 L9.01473729,67.9727423 C9.01473729,73.5907963 12.534663,78.1417507 18.0324805,78.1417507 C23.5363098,78.1417507 27.0502237,73.5907963 27.0502237,67.9727423 L27.0502237,35.7343104 C33.0620525,32.3556626 36.7052207,26.2566623 36.7052207,19.2679113 Z" id="path3377"></path>
                            </g>
                        </g>
                    </g>
                    <path d="M48.4303925,241.279218 C36.2959069,236.600653 22.3246858,223.910497 16.9407624,212.676962 C12.7263202,203.88355 0,140.132813 0,127.81454 C0,114.078774 8.91199513,99.7732633 21.743883,92.911374 L32.0614127,89.3336866 L155.857805,89 L280.321569,89 L289.971726,92.911374 C303.457482,98.3773828 311.715603,114.078774 311.715603,127.81454 C311.715603,137.428086 299.047033,203.57824 295.774073,211.054866 C290.923098,222.136145 275.191615,236.729577 263.3016,241.178207 C253.747181,244.75297 250.6718,244.855186 155.351459,244.766033 C62.8046151,244.679493 56.7361549,244.481584 48.4303925,241.279218 Z" id="path5302" fill-rule="nonzero"></path>
                </g>
            </g>
            <g id="layer3" transform="translate(342.000000, 428.000000)" fill="#F7DF1E" font-family="Futura-Medium, Futura" font-size="80" font-weight="400">
                <text id="IOIOI">
                    <tspan x="0" y="83">IOIOI</tspan>
                </text>
            </g>
        </g>
    </g>
</svg>